<mxfile host="app.diagrams.net" modified="2024-03-03T13:51:29.911Z" agent="Mozilla/5.0 (Windows NT 10.0; Win64; x64; rv:124.0) Gecko/20100101 Firefox/124.0" version="23.1.7" etag="mZtzjk8WUhEir8vcbR0D" type="github">
  <diagram name="Page-1" id="WveqWh1v3046AFjUlxAS">
    <mxGraphModel>
      <root>
        <mxCell id="0" />
        <mxCell id="1" parent="0" />
      </root>
    </mxGraphModel>
  </diagram>
</mxfile>
